<?xml version="1.0" encoding="utf-8"?>
<!-- Generator: Adobe Illustrator 18.1.1, SVG Export Plug-In . SVG Version: 6.00 Build 0)  -->
<svg version="1.1" id="Layer_1" xmlns="http://www.w3.org/2000/svg" xmlns:xlink="http://www.w3.org/1999/xlink" x="0px" y="0px"
	 viewBox="0 0 29 29" enable-background="new 0 0 29 29" xml:space="preserve">
<g>
	<path fill="#FFFFFF" d="M26.1,5.7c-1.9-2.5-4.5-4.3-7.5-5.2C15.5-0.3,12.2-0.2,9.2,1c-2.9,1.1-5.3,3.2-7,5.8
		C0.5,9.5-0.2,12.7,0,15.9C0.4,19,1.7,22,3.8,24.3s4.9,3.9,7.9,4.5c3.1,0.6,6.4,0.2,9.3-1.3c4.9-2.4,8-7.6,8-13
		C29,11.4,28,8.3,26.1,5.7z M14.8,21c-0.6,0-1.2,0-1.8-0.1c-0.3,0-1.8,0.7-3,1.5L9,23l-0.2,0.1v-0.3v-1.2c0-1.2-0.1-2.3-0.2-2.6
		c-1.8-1.3-2.9-3.2-2.9-5.2c0-3.9,4.1-7.1,9.1-7.1s9.1,3.2,9.1,7.1C23.9,17.8,19.8,21,14.8,21z"/>
	<path fill="#FFFFFF" d="M14.8,8.3c-4.2,0-7.6,2.5-7.6,5.6c0,1.5,0.8,3,2.3,4c0.5,0.3,0.7,1.1,0.8,2.5c1.3-0.7,2.2-1,2.7-1
		c0.1,0,0.1,0,0.2,0c0.5,0.1,1.1,0.1,1.6,0.1c4.2,0,7.6-2.5,7.6-5.6C22.3,10.8,18.9,8.3,14.8,8.3z M19.6,14.6v1.1v0.1h-0.1h-9.1
		h-0.1v-0.1v-1.1v-0.1h0.1h9.1h0.1V14.6z M19.7,11.6v1.1v0.1h-0.1h-9.3h-0.1v-0.1v-1.1v-0.1h0.1h9.3h0.1V11.6z"/>
</g>
</svg>
