<?xml version="1.0" encoding="utf-8"?>
<!-- Generator: Adobe Illustrator 18.1.1, SVG Export Plug-In . SVG Version: 6.00 Build 0)  -->
<svg version="1.1" id="Layer_1" xmlns="http://www.w3.org/2000/svg" xmlns:xlink="http://www.w3.org/1999/xlink" x="0px" y="0px"
	 viewBox="0 0 29 29" enable-background="new 0 0 29 29" xml:space="preserve">
<g>
	<path fill="#FFFFFF" d="M14.9,15.9C14.8,16,14.6,16,14.5,16c-0.1,0-0.2,0-0.3-0.1L13,15l-5.2,4.5h13.6L16.1,15L14.9,15.9z"/>
	<polygon fill="#FFFFFF" points="7,10.3 7,18.7 12.1,14.3 	"/>
	<polygon fill="#FFFFFF" points="21.2,9.6 7.9,9.6 14.5,14.8 	"/>
	<polygon fill="#FFFFFF" points="22,18.7 22,10.3 16.9,14.3 	"/>
	<path fill="#FFFFFF" d="M26.1,5.7c-1.9-2.5-4.5-4.3-7.5-5.2C15.5-0.3,12.2-0.2,9.2,1c-2.9,1.1-5.3,3.2-7,5.8
		C0.5,9.5-0.2,12.7,0,15.9C0.4,19,1.7,22,3.8,24.3s4.9,3.9,7.9,4.5c3.1,0.6,6.4,0.2,9.3-1.3c4.9-2.4,8-7.6,8-13
		C29,11.4,28,8.3,26.1,5.7z M23.3,19.1c0,0.9-0.7,1.6-1.6,1.6H7.4c-0.9,0-1.6-0.7-1.6-1.6V10c0-0.9,0.7-1.6,1.6-1.6h14.3
		c0.9,0,1.6,0.7,1.6,1.6C23.3,10,23.3,19.1,23.3,19.1z"/>
</g>
</svg>
